<svg width="947" height="732" viewBox="0 0 947 732" fill="none" xmlns="http://www.w3.org/2000/svg">
<path d="M900.5 210C900.5 325.98 806.48 420 690.5 420C574.52 420 480.5 325.98 480.5 210C480.5 94.0202 574.52 0 690.5 0C806.48 0 900.5 94.0202 900.5 210Z" fill="#01EEFD" fill-opacity="0.2"/>
<path d="M420 505.5C420 621.48 325.98 715.5 210 715.5C94.0202 715.5 0 621.48 0 505.5C0 389.52 94.0202 295.5 210 295.5C325.98 295.5 420 389.52 420 505.5Z" fill="#01EEFD" fill-opacity="0.2"/>
<ellipse cx="351.5" cy="875" rx="218" ry="209" fill="#4400B3" fill-opacity="0.2"/>
<ellipse cx="863.5" cy="673" rx="218" ry="209" fill="#4400B3" fill-opacity="0.3"/>
</svg>
