<svg width="1082" height="740" viewBox="0 0 1082 740" fill="none" xmlns="http://www.w3.org/2000/svg">
<path d="M900.5 -134C900.5 -18.0202 806.48 76 690.5 76C574.52 76 480.5 -18.0202 480.5 -134C480.5 -249.98 574.52 -344 690.5 -344C806.48 -344 900.5 -249.98 900.5 -134Z" fill="#01EEFD" fill-opacity="0.2"/>
<path d="M420 161.5C420 277.48 325.98 371.5 210 371.5C94.0202 371.5 0 277.48 0 161.5C0 45.5202 94.0202 -48.5 210 -48.5C325.98 -48.5 420 45.5202 420 161.5Z" fill="#01EEFD" fill-opacity="0.2"/>
<ellipse cx="351.5" cy="531" rx="218" ry="209" fill="#4400B3" fill-opacity="0.2"/>
<ellipse cx="863.5" cy="329" rx="218" ry="209" fill="#4400B3" fill-opacity="0.3"/>
</svg>
