<svg width="1034" height="1013" viewBox="0 0 1034 1013" fill="none" xmlns="http://www.w3.org/2000/svg">
<path d="M853 210C853 325.98 758.98 420 643 420C527.02 420 433 325.98 433 210C433 94.0202 527.02 0 643 0C758.98 0 853 94.0202 853 210Z" fill="#01EEFD" fill-opacity="0.2"/>
<path d="M372.5 505.5C372.5 621.48 278.48 715.5 162.5 715.5C46.5202 715.5 -47.5 621.48 -47.5 505.5C-47.5 389.52 46.5202 295.5 162.5 295.5C278.48 295.5 372.5 389.52 372.5 505.5Z" fill="#01EEFD" fill-opacity="0.2"/>
<ellipse cx="304" cy="875" rx="218" ry="209" fill="#4400B3" fill-opacity="0.2"/>
<ellipse cx="816" cy="673" rx="218" ry="209" fill="#4400B3" fill-opacity="0.3"/>
</svg>
